<svg width="311" height="60" viewBox="0 0 311 60" xmlns="http://www.w3.org/2000/svg"><g fill="none" fill-rule="evenodd"><g><circle fill="#4F5D73" fill-rule="nonzero" cx="30" cy="30" r="30"/><g opacity=".2" fill-rule="nonzero" fill="#231F20"><path d="M30 58a2 2 0 0 1-2-2V8a2 2 0 0 1 4 0v48a2 2 0 0 1-2 2z"/><path d="M54 34H6a2 2 0 0 1 0-4h48a2 2 0 0 1 0 4z"/><path d="M46.998 51a1.993 1.993 0 0 1-1.416-.587L11.587 16.42a2.003 2.003 0 1 1 2.832-2.832L48.413 47.58A2.003 2.003 0 0 1 46.998 51z"/><path d="M13.003 51a2.003 2.003 0 0 1-1.416-3.42L45.58 13.588a2.003 2.003 0 1 1 2.832 2.832L14.42 50.413c-.39.39-.903.587-1.416.587z"/></g><g stroke="#E0995E" stroke-width="4" stroke-linecap="round"><path d="M30 6v48M54 30H6M47 47L13 13M13 47l34-34"/></g><path d="M30 16c8.822 0 16 7.178 16 16s-7.178 16-16 16-16-7.178-16-16 7.178-16 16-16zm0-4c-11.046 0-20 8.954-20 20s8.954 20 20 20 20-8.954 20-20-8.954-20-20-20z" fill="#231F20" fill-rule="nonzero" opacity=".2"/><path d="M30 14c8.822 0 16 7.178 16 16s-7.178 16-16 16-16-7.178-16-16 7.178-16 16-16zm0-4c-11.046 0-20 8.954-20 20s8.954 20 20 20 20-8.954 20-20-8.954-20-20-20z" fill="#F5CF87" fill-rule="nonzero"/><circle fill="#4F5D73" fill-rule="nonzero" cx="30" cy="30" r="6"/><path d="M30 42c-5.514 0-10-4.486-10-10s4.486-10 10-10 10 4.486 10 10-4.486 10-10 10zm0-16c-3.309 0-6 2.691-6 6s2.691 6 6 6 6-2.691 6-6-2.691-6-6-6z" opacity=".2" fill-rule="nonzero" fill="#231F20"/><circle stroke="#F5CF87" stroke-width="4" cx="30" cy="30" r="8"/></g><path d="M74.367 41.906V12.54l-3.68-.61v-2.6h5.79c.843 0 1.984-.048 3.421-.142A65.756 65.756 0 0 1 84.75 9c3.313 0 5.945.395 7.898 1.184 1.954.789 3.344 1.933 4.172 3.433.828 1.5 1.243 3.383 1.243 5.649 0 2.578-.594 4.812-1.782 6.703-1.187 1.89-2.832 3.332-4.933 4.324-2.102.992-4.504 1.488-7.207 1.488-.844 0-1.711-.023-2.602-.07-.89-.047-1.445-.094-1.664-.14v10.335l6.328.54V45H70.43v-2.555l3.937-.539zm15.551-15.129c1.492-1.492 2.238-3.98 2.238-7.465 0-2.703-.656-4.648-1.969-5.835-1.312-1.188-3.359-1.782-6.14-1.782-.953 0-1.914.063-2.883.188a8.99 8.99 0 0 1-1.312.117v16.805c.75.14 2.18.21 4.289.21 2.359 0 4.285-.745 5.777-2.238zm13.965 15.27v-19.64l-3.399-.962V18.68l7.454-.961h.117l1.195.914v23.414l3.75.398V45h-12.914v-2.555l3.797-.398zm-.035-34.64c.617-.735 1.48-1.102 2.59-1.102h.023c.656 0 1.226.152 1.71.457.485.304.856.707 1.114 1.207.258.5.387 1.031.387 1.593 0 1.094-.313 1.993-.938 2.696-.625.703-1.53 1.055-2.718 1.055h-.024c-.906 0-1.644-.305-2.215-.915-.57-.609-.855-1.375-.855-2.296 0-1.063.308-1.961.926-2.696zm14.972 34.64V9.352l-3.843-.47V6.657l7.992-1.008h.047l1.148.797v35.602l3.984.398V45h-13.125v-2.555l3.797-.398zm30.97-22.617c1.812 1.203 3.155 2.855 4.03 4.957.875 2.101 1.313 4.504 1.313 7.207 0 2.89-.598 5.39-1.793 7.5-1.195 2.11-2.766 3.71-4.711 4.804a12.5 12.5 0 0 1-6.223 1.641c-2.719 0-4.98-.601-6.785-1.805-1.805-1.203-3.144-2.855-4.02-4.957-.874-2.101-1.312-4.504-1.312-7.207 0-2.86.598-5.343 1.793-7.453 1.195-2.11 2.766-3.719 4.711-4.828 1.945-1.11 4.012-1.664 6.2-1.664 2.718 0 4.984.602 6.796 1.805zm-2.145 4.207c-1.04-2.07-2.684-3.106-4.934-3.106-2.156 0-3.781.887-4.875 2.66-1.094 1.774-1.64 4.426-1.64 7.957 0 3.516.527 6.309 1.581 8.38 1.055 2.07 2.7 3.105 4.934 3.105 4.328 0 6.492-3.54 6.492-10.617 0-3.516-.52-6.309-1.558-8.38zm9.91-1.934v-2.226c.437-.11.941-.266 1.511-.47.57-.202.942-.359 1.114-.468.515-.375.937-.984 1.265-1.828.235-.531.543-1.379.926-2.543.383-1.164.645-2.043.785-2.637h3.047l.047 6.82h7.875v3.352h-7.852v14.18c0 1.906.055 3.23.165 3.972.109.743.332 1.22.667 1.43.336.211.95.317 1.84.317h.024c.812 0 1.73-.102 2.754-.305 1.023-.203 1.816-.414 2.379-.633h.023l.797 2.273c-.469.391-1.172.786-2.11 1.184-.937.399-1.945.73-3.023.996s-2.07.399-2.976.399h-.047c-1.938 0-3.399-.426-4.383-1.278-.985-.851-1.477-2.277-1.477-4.277V21.703h-3.351zM179.43 42.07V9.352l-3.868-.47V6.657l7.946-1.008h.117l1.125.797.023 10.875-.21 4.196c1.062-.938 2.453-1.801 4.171-2.59 1.72-.79 3.485-1.184 5.297-1.184 2 0 3.559.383 4.676 1.149 1.117.765 1.898 1.941 2.344 3.527.445 1.586.668 3.715.668 6.387v13.242l3.375.398V45h-11.79v-2.531l3.071-.399V28.781c0-1.812-.121-3.238-.363-4.277-.242-1.04-.707-1.82-1.395-2.344-.687-.523-1.695-.785-3.023-.785-1.125 0-2.305.23-3.54.691-1.234.461-2.32 1.043-3.257 1.747v18.234l3.328.398V45h-11.508v-2.555l2.813-.375zm47.234-22.64c1.813 1.203 3.156 2.855 4.031 4.957.875 2.101 1.313 4.504 1.313 7.207 0 2.89-.598 5.39-1.793 7.5-1.195 2.11-2.766 3.71-4.711 4.804a12.5 12.5 0 0 1-6.223 1.641c-2.719 0-4.98-.601-6.785-1.805-1.805-1.203-3.144-2.855-4.02-4.957-.874-2.101-1.312-4.504-1.312-7.207 0-2.86.598-5.343 1.793-7.453 1.195-2.11 2.766-3.719 4.711-4.828 1.945-1.11 4.012-1.664 6.2-1.664 2.718 0 4.984.602 6.796 1.805zm-2.144 4.207c-1.04-2.07-2.684-3.106-4.934-3.106-2.156 0-3.781.887-4.875 2.66-1.094 1.774-1.64 4.426-1.64 7.957 0 3.516.527 6.309 1.581 8.38 1.055 2.07 2.7 3.105 4.934 3.105 4.328 0 6.492-3.54 6.492-10.617 0-3.516-.52-6.309-1.558-8.38zm29.62 18.175c-1 .97-2.265 1.833-3.796 2.59-1.532.758-3.078 1.137-4.64 1.137-1.954 0-3.54-.348-4.759-1.043-1.218-.695-2.117-1.8-2.695-3.316-.578-1.516-.867-3.516-.867-6V21.586l-2.602-.867v-2.274l6.938-.703h.023l.985.633v16.547c0 1.781.132 3.172.398 4.172.266 1 .734 1.73 1.406 2.191.672.461 1.64.692 2.906.692 1.22 0 2.352-.235 3.399-.704 1.047-.468 1.953-1.007 2.719-1.617V21.61l-3.352-.914v-2.273l7.406-.68h.047l1.242.633v23.977h2.813v2.343c-.906.266-1.691.473-2.356.621-.664.149-1.425.223-2.285.223-1 0-1.738-.191-2.215-.574-.476-.383-.714-1.027-.714-1.934v-1.218zm14.446-4.43l.937 3.563c.188.328.551.64 1.09.938.54.297 1.176.539 1.91.726a9.06 9.06 0 0 0 2.25.282c1.766 0 3.024-.332 3.774-.996.75-.665 1.125-1.575 1.125-2.73 0-.813-.254-1.528-.762-2.145-.508-.618-1.262-1.2-2.262-1.747-1-.546-2.359-1.164-4.078-1.851-2.484-.969-4.297-2.113-5.437-3.434-1.14-1.32-1.711-3.027-1.711-5.12 0-1.407.426-2.645 1.277-3.716.852-1.07 2.02-1.902 3.504-2.496 1.485-.594 3.156-.89 5.016-.89 1.437 0 2.703.113 3.797.34 1.093.226 2.195.519 3.304.878l.844.258v5.93h-3l-1.008-3.281c-.187-.407-.691-.758-1.511-1.055-.82-.297-1.739-.445-2.754-.445-1.438 0-2.547.304-3.329.914-.78.61-1.171 1.406-1.171 2.39 0 .875.23 1.61.691 2.203a5.462 5.462 0 0 0 1.723 1.454c.687.375 1.648.82 2.882 1.335l.915.399c1.78.766 3.226 1.484 4.336 2.156a9.09 9.09 0 0 1 2.765 2.578c.735 1.047 1.102 2.328 1.102 3.844 0 1.563-.41 2.938-1.23 4.125-.821 1.188-2.009 2.11-3.563 2.766-1.555.656-3.395.984-5.52.984-1.594 0-3.265-.219-5.015-.656-1.75-.438-3.149-.89-4.196-1.36v-6.14h3.305zm20.96-13.077c1.079-2.125 2.571-3.77 4.477-4.934 1.907-1.164 4.07-1.746 6.493-1.746 3 0 5.32.82 6.96 2.46 1.641 1.642 2.516 4.009 2.626 7.102v.844c0 1.64-.094 2.89-.282 3.75h-16.242c.063 2.297.453 4.203 1.172 5.719.719 1.516 1.664 2.633 2.836 3.352 1.172.718 2.492 1.078 3.96 1.078 1.282 0 2.599-.223 3.95-.668 1.352-.446 2.41-.957 3.176-1.535l.984 2.25c-.594.609-1.41 1.187-2.449 1.734-1.039.547-2.195.988-3.469 1.324a14.792 14.792 0 0 1-3.785.504c-2.625 0-4.84-.582-6.644-1.746-1.805-1.164-3.153-2.79-4.043-4.875-.891-2.086-1.336-4.52-1.336-7.3 0-2.75.539-5.188 1.617-7.313zm14.93 4.758c.063-.563.094-1.235.094-2.016-.015-1.985-.43-3.578-1.242-4.781-.812-1.204-2.094-1.805-3.844-1.805s-3.136.652-4.16 1.957c-1.023 1.305-1.605 3.52-1.746 6.645h10.899z" fill="#4F5D73"/></g></svg>